<mxfile host="app.diagrams.net" modified="2024-06-26T13:54:49.226Z" agent="Mozilla/5.0 (Windows NT 10.0; Win64; x64) AppleWebKit/537.36 (KHTML, like Gecko) Chrome/126.0.0.0 Safari/537.36" etag="SsOxW_e-7dvuQg8mA6NU" version="24.6.3" type="device">
  <diagram name="Synoptique" id="bO2G1v3HBvHclKyRHs1X">
    <mxGraphModel dx="1105" dy="586" grid="1" gridSize="10" guides="1" tooltips="1" connect="1" arrows="1" fold="1" page="1" pageScale="1" pageWidth="850" pageHeight="1100" math="0" shadow="0">
      <root>
        <mxCell id="0" />
        <mxCell id="1" parent="0" />
        <mxCell id="rGpltZNzkcHZ6WwnMBFY-1" value="Utilisateur" style="shape=umlActor;verticalLabelPosition=bottom;verticalAlign=top;html=1;outlineConnect=0;" vertex="1" parent="1">
          <mxGeometry x="150" y="315" width="30" height="60" as="geometry" />
        </mxCell>
        <mxCell id="rGpltZNzkcHZ6WwnMBFY-7" value="" style="shape=image;verticalLabelPosition=bottom;labelBackgroundColor=default;verticalAlign=top;aspect=fixed;imageAspect=0;image=data:image/jpeg,/9j/4AAQSkZJRgABAQEBLAEsAAD/4QBWRXhpZgAATU0AKgAAAAgABAEaAAUAAAABAAAAPgEbAAUAAAABAAAARgEoAAMAAAABAAIAAAITAAMAAAABAAEAAAAAAAAAAAEsAAAAAQAAASwAAAAB/+0ALFBob3Rvc2hvcCAzLjAAOEJJTQQEAAAAAAAPHAFaAAMbJUccAQAAAgAEAP/hDIFodHRwOi8vbnMuYWRvYmUuY29tL3hhcC8xLjAvADw/eHBhY2tldCBiZWdpbj0n77u/JyBpZD0nVzVNME1wQ2VoaUh6cmVTek5UY3prYzlkJz8+Cjx4OnhtcG1ldGEgeG1sbnM6eD0nYWRvYmU6bnM6bWV0YS8nIHg6eG1wdGs9J0ltYWdlOjpFeGlmVG9vbCAxMC4xMCc+CjxyZGY6UkRGIHhtbG5zOnJkZj0naHR0cDovL3d3dy53My5vcmcvMTk5OS8wMi8yMi1yZGYtc3ludGF4LW5zIyc+CgogPHJkZjpEZXNjcmlwdGlvbiByZGY6YWJvdXQ9JycKICB4bWxuczp0aWZmPSdodHRwOi8vbnMuYWRvYmUuY29tL3RpZmYvMS4wLyc+CiAgPHRpZmY6UmVzb2x1dGlvblVuaXQ+MjwvdGlmZjpSZXNvbHV0aW9uVW5pdD4KICA8dGlmZjpYUmVzb2x1dGlvbj4zMDAvMTwvdGlmZjpYUmVzb2x1dGlvbj4KICA8dGlmZjpZUmVzb2x1dGlvbj4zMDAvMTwvdGlmZjpZUmVzb2x1dGlvbj4KIDwvcmRmOkRlc2NyaXB0aW9uPgoKIDxyZGY6RGVzY3JpcHRpb24gcmRmOmFib3V0PScnCiAgeG1sbnM6eG1wTU09J2h0dHA6Ly9ucy5hZG9iZS5jb20veGFwLzEuMC9tbS8nPgogIDx4bXBNTTpEb2N1bWVudElEPmFkb2JlOmRvY2lkOnN0b2NrOmI3MWRmOTQ3LTcyMmItNDI3MS1hZjEwLTEwMzM4ZWZiMzdlYTwveG1wTU06RG9jdW1lbnRJRD4KICA8eG1wTU06SW5zdGFuY2VJRD54bXAuaWlkOjY5MzFmNjE1LWI0OWQtNGM1Mi1hY2UwLWRhZWMyZGNjNjM5ZjwveG1wTU06SW5zdGFuY2VJRD4KIDwvcmRmOkRlc2NyaXB0aW9uPgo8L3JkZjpSREY+CjwveDp4bXBtZXRhPgogICAgICAgICAgICAgICAgICAgICAgICAgICAgICAgICAgICAgICAgICAgICAgICAgICAgICAgICAgICAgICAgICAgICAgICAgICAgICAgICAgICAgICAgICAgICAgICAgICAgCiAgICAgICAgICAgICAgICAgICAgICAgICAgICAgICAgICAgICAgICAgICAgICAgICAgICAgICAgICAgICAgICAgICAgICAgICAgICAgICAgICAgICAgICAgICAgICAgICAgICAKICAgICAgICAgICAgICAgICAgICAgICAgICAgICAgICAgICAgICAgICAgICAgICAgICAgICAgICAgICAgICAgICAgICAgICAgICAgICAgICAgICAgICAgICAgICAgICAgICAgIAogICAgICAgICAgICAgICAgICAgICAgICAgICAgICAgICAgICAgICAgICAgICAgICAgICAgICAgICAgICAgICAgICAgICAgICAgICAgICAgICAgICAgICAgICAgICAgICAgICAgCiAgICAgICAgICAgICAgICAgICAgICAgICAgICAgICAgICAgICAgICAgICAgICAgICAgICAgICAgICAgICAgICAgICAgICAgICAgICAgICAgICAgICAgICAgICAgICAgICAgICAKICAgICAgICAgICAgICAgICAgICAgICAgICAgICAgICAgICAgICAgICAgICAgICAgICAgICAgICAgICAgICAgICAgICAgICAgICAgICAgICAgICAgICAgICAgICAgICAgICAgIAogICAgICAgICAgICAgICAgICAgICAgICAgICAgICAgICAgICAgICAgICAgICAgICAgICAgICAgICAgICAgICAgICAgICAgICAgICAgICAgICAgICAgICAgICAgICAgICAgICAgCiAgICAgICAgICAgICAgICAgICAgICAgICAgICAgICAgICAgICAgICAgICAgICAgICAgICAgICAgICAgICAgICAgICAgICAgICAgICAgICAgICAgICAgICAgICAgICAgICAgICAKICAgICAgICAgICAgICAgICAgICAgICAgICAgICAgICAgICAgICAgICAgICAgICAgICAgICAgICAgICAgICAgICAgICAgICAgICAgICAgICAgICAgICAgICAgICAgICAgICAgIAogICAgICAgICAgICAgICAgICAgICAgICAgICAgICAgICAgICAgICAgICAgICAgICAgICAgICAgICAgICAgICAgICAgICAgICAgICAgICAgICAgICAgICAgICAgICAgICAgICAgCiAgICAgICAgICAgICAgICAgICAgICAgICAgICAgICAgICAgICAgICAgICAgICAgICAgICAgICAgICAgICAgICAgICAgICAgICAgICAgICAgICAgICAgICAgICAgICAgICAgICAKICAgICAgICAgICAgICAgICAgICAgICAgICAgICAgICAgICAgICAgICAgICAgICAgICAgICAgICAgICAgICAgICAgICAgICAgICAgICAgICAgICAgICAgICAgICAgICAgICAgIAogICAgICAgICAgICAgICAgICAgICAgICAgICAgICAgICAgICAgICAgICAgICAgICAgICAgICAgICAgICAgICAgICAgICAgICAgICAgICAgICAgICAgICAgICAgICAgICAgICAgCiAgICAgICAgICAgICAgICAgICAgICAgICAgICAgICAgICAgICAgICAgICAgICAgICAgICAgICAgICAgICAgICAgICAgICAgICAgICAgICAgICAgICAgICAgICAgICAgICAgICAKICAgICAgICAgICAgICAgICAgICAgICAgICAgICAgICAgICAgICAgICAgICAgICAgICAgICAgICAgICAgICAgICAgICAgICAgICAgICAgICAgICAgICAgICAgICAgICAgICAgIAogICAgICAgICAgICAgICAgICAgICAgICAgICAgICAgICAgICAgICAgICAgICAgICAgICAgICAgICAgICAgICAgICAgICAgICAgICAgICAgICAgICAgICAgICAgICAgICAgICAgCiAgICAgICAgICAgICAgICAgICAgICAgICAgICAgICAgICAgICAgICAgICAgICAgICAgICAgICAgICAgICAgICAgICAgICAgICAgICAgICAgICAgICAgICAgICAgICAgICAgICAKICAgICAgICAgICAgICAgICAgICAgICAgICAgICAgICAgICAgICAgICAgICAgICAgICAgICAgICAgICAgICAgICAgICAgICAgICAgICAgICAgICAgICAgICAgICAgICAgICAgIAogICAgICAgICAgICAgICAgICAgICAgICAgICAgICAgICAgICAgICAgICAgICAgICAgICAgICAgICAgICAgICAgICAgICAgICAgICAgICAgICAgICAgICAgICAgICAgICAgICAgCiAgICAgICAgICAgICAgICAgICAgICAgICAgICAgICAgICAgICAgICAgICAgICAgICAgICAgICAgICAgICAgICAgICAgICAgICAgICAgICAgICAgICAgICAgICAgICAgICAgICAKICAgICAgICAgICAgICAgICAgICAgICAgICAgICAgICAgICAgICAgICAgICAgICAgICAgICAgICAgICAgICAgICAgICAgICAgICAgICAgICAgICAgICAgICAgICAgICAgICAgIAogICAgICAgICAgICAgICAgICAgICAgICAgICAgICAgICAgICAgICAgICAgICAgICAgICAgICAgICAgICAgICAgICAgICAgICAgICAgICAgICAgICAgICAgICAgICAgICAgICAgCiAgICAgICAgICAgICAgICAgICAgICAgICAgICAgICAgICAgICAgICAgICAgICAgICAgICAgICAgICAgICAgICAgICAgICAgICAgICAgICAgICAgICAgICAgICAgICAgICAgICAKICAgICAgICAgICAgICAgICAgICAgICAgICAgICAgICAgICAgICAgICAgICAgICAgICAgICAgICAgICAgICAgICAgICAgICAgICAgICAgICAgICAgICAgICAgICAgICAgICAgIAo8P3hwYWNrZXQgZW5kPSd3Jz8+/9sAQwAFAwQEBAMFBAQEBQUFBgcMCAcHBwcPCwsJDBEPEhIRDxERExYcFxMUGhURERghGBodHR8fHxMXIiQiHiQcHh8e/9sAQwEFBQUHBgcOCAgOHhQRFB4eHh4eHh4eHh4eHh4eHh4eHh4eHh4eHh4eHh4eHh4eHh4eHh4eHh4eHh4eHh4eHh4e/8AAEQgBaAKDAwERAAIRAQMRAf/EAB0AAQACAwEBAQEAAAAAAAAAAAAGBwQFCAECAwn/xABcEAABAwICBAULDwkECQMFAAAAAQIDBAUGEQcSITEIE1GR0RQWQVJWcXKUobHBFRciMjNCU1VhgZKTorLSIzQ1NlRidILCGEN14QkkJTc4Y3OjsyZEtJWkw9Pi/8QAHAEBAAIDAQEBAAAAAAAAAAAAAAUGAwQHAQII/8QAQhEBAAECAwIJCAkEAgIDAQAAAAECAwQFEQYSFSExUVNhcZGxExQyUoGhwdEWIiMzNEFicpIHNVThQvBDohckgvH/2gAMAwEAAhEDEQA/AOywAAAAAAAAAAAAAAAAAAAAAAAAAAAAAAAAAAAAAAAAAAAAAAAAAAAAAAAAAAAAAAAAAAAAAAAAAAAAAAAAAAAAAAAAAAAAAAAAAAAAAAAAAAAAAAAAAAAAAAAAAAAAAAAAAAAAAAAAAAAAAAAAAAAAAAAAAAAAAAAAAAAAAAAAAAAAAAAAAAAAAAAAAAAAAAAAAAAAAAAAAAAAAAAAAAAAAAAAAAAAAAAAAAAAAAAAAAAAAAAAAAAAAAAAAAAAAAAAAAAAAAAAAAAAAAAAAAAAAAAAAAAAAAAAAAAAAAAAAAAAAAAAAAAAAAAAAAAAAAAAAAAAAAAAAAAAAAAAAAAAAAAAAAAAAAAAAAAAAAAAAAAAAAAAAAAAAAAAAAAAAAAAAAAAAAAAAAAAAAAAAAAAAAAAAAAAAAAAAAAAAAAAAAAAAAAAAAAAAAAAAAAAAAAAAAAAAAAAAAAAAAAAAAAAAAAAAAAAAAAAAAAAAAAAAAAAAAAAAAAAAAAAAAAAAAAAAAAAAAAAAAAAAAAAAAAAAAAAAAAAAAAAAAAAAAAAAAAAAAAAAAAAAAAAAAAAAAAAAAAAAAAAAAAAAAAAAAAAAAAAAAAAAAAAAAAAAAAAAAAAAAAAAAAAAAAAAAAAAAAAAAAAAAAAAAAAAAAAAAAAAAAAAAAAAAAAAAAAAAAAAAAAAAAAAAAAAAAAAAAAAAAAAAAAAAAAAAAAAAAAAAAAAAAAAAAAAAAAAAAAAAAAAAAAAAAAAAAAAAAAAAAAAAAAAAAAAAAAAAAAAAAAAAAAAAAAAAAAAAAAAAAAAAAAAAAAAAAAAAAAAAAAAAAAAAAAAAAAAAAAAAAAAAAAAAAAAAAAAAAAAAAAAAAAAAAAAAAAAAAAAAAAAAAAAAAAAAAAAAAAAAAAAAAAAAAAAAAAAAAAAAAAAAAAAAAAAAAAAAAAAAAAAAAAAAAAAAAAAAAI/jzGeGcC2Zl5xXdorXQPmbA2aRj3IsjkVUbk1FXc1eYDKwjiOy4sw9S4gw7Xsr7ZVI5YKhjXNR+q5WrsciLsVqpu7AGguGlbR/b8dx4FrMS08WI5Jo4G0KxSK5XyIisbmjdXajk7PZA0Vw4Quhy319RQVmOaKKpppXQzRrTzqrHtVUcmxnYVFA/D+0hoT7vqHxaf/wDWBub5po0YWO50ttu2MKGjqquCGohZKyRNaOVEWN2erkiKiou1dnZyAn7VRyZoqKi7gInpA0k4HwC6kZi/EdJaX1iOWnbKjnOejctZURqKuSZptUDHxLpW0f4cw7aMQ3rEtNR2u8sSS31DopHNnbqo7NEa1VTYqLtRN4EosV0oL5ZqO8WupbU0NbCyenmaiokkbkza5EVEXanKBmgAAAAAAAAAAAAAAAMK93a2WS2zXO8XClt9FA3WlqKmVscbE+VyrkgFaN4R2hV1w6hTHtDxmtq66wTJFn/1NTVy+XPICwqjEuH6fDa4lnvdujsqRcctetQ3iNTttfPLICA2vhD6Gblc222mx7bknc7Uas0csMar/wBR7Eb5QJzirFmG8LWJb7iG90NttuzKonlRGvVUzRG9sq9hEzVQIfhXTzojxNdWWuz43t0lZI7VjjnbJT8YvYRqyNaiqvIi5gWWAAAAAAAAAAAAAAAAAAAACE4e0raP8Q4xnwhZsS09XfKd0rJaRsUiOasS5SJmrUbsVF7IH5Y/0v6N8B16W/FWLKGgrVajupkR80rUXcrmRo5WovYzyzA2eAtIOC8eU0k+EsR0F2bFtkZC9UkjTsK5jkRzfnQCUAAAAAAAAAAAAAAAAAAAAAAAAAAAAAAAAAAA5x/0hn+4uk/x2n/8coGNwVdLGjfDmgTDVmvuNLLb7jTsnSamnqEa+POeRyZp8qKi/OBS+JL7Z8S8PS0Xiw3KmuVunvVt4qop36zH6scaLkvyKip8wFvcJ/QboxseibF2NLZhx0N8Y3qptT1bO7KSSdus7VV+rt1nbMstoEH4GGhnRzpE0ZXK8YusDrhXQ3eSmjlSsmiyjSKNyJkxyJvcu3ftAg/DIw5NU8IWnwzh6jdI9tno6ajpmuVVVrInI1qKu1VyblyqB07wN9JzMb6IIqe6VbVu2HWpSVz5HbXRI3OKVVXsKxFRVXsscBxrwjsYXTSlj2+42pmSOw7bqiK2UL1XJrI111jy+V+pJIvJn3gLM4UP/C7oV/w9n/xowOu9AX+5LBX+B0n/AImgTcAAAAAAAAAAAAAADx24DhLhOXm/aXOEvQ6JqGudTWqjrI6JjPecarUdNO5vvla1VRPkbsyzUC8/7Jeh5cOepvqZcUreL1fVPq+Tj9bL22WfF/Nq5AU1wycDpoz0NYJwfht1Y7D8ddUSV0sjs1nqla1WOky2IqpxmSJsTL5AMvRvhPgq6R8MWex01TUWHEnFxNmSesfBUzS5JrtzeqxSay55au3amSJuA1PD4hfatIGCLTPS1EeD6K2MZTU1Ouq1EbLqytZnsR6RpGnyJkBO9H+BOCtpGvFmnwfL1FcaKVk7rW+qkjkqdTbqSRzKuumzbqLt27cgOsE3AAAAAAAAAAAAAAAAAAAB4vpA4Q4NOt/bbxHq7V6qu+We73RwEE0bV+AGabcRy6e6OvquNnna90nGK2Kq41dZZWsVH5ZZomWaJyblQOxeDvo70Q2KvumMtGFwZcYrixINZlZx7aRiLrLE3P2bc1RFVH5rsQC5gAAAAAAAAAAAAAAAAAAAAAAAAAAAAAAAAAAc4/6Qz/cXSf47T/8AjmA0XBi0F6LMX6DsO4hxDhSOuudWydZ51qpmK/Vnkamxr0RNiIm7sAVJdcMWPB3DrsuHsOUDaC2Ut6t3EwNe56N1o43O2uVV2qqrvA6u4Xn/AA34x/hI/wDzxgV9/o6P9zN4/wAfl/8ADCBB9MP/AB/4Rz+Ft3mcBCeEjYsR6GNKeIIsILJTWPHNDJExkTVVNWR6LLC3L3zXbstzZMuyBv8AT1o5bo04IGGLNPEjbtVXyKtujuzx74JPYZ8jG5M+ZV7IGLwov+F3Qr/h7P8A40YF+aGtM2iy06JcJ2y447slLWUtnpop4ZJ8nRvbGiK1Uy3ouwC8aOogrKSGrppWywTRtkje1c0c1yZoqfIqKB+oAAAAAAAAAAAAAC7UA4G0/wAdx0QcL6l0gzUMs9sq6yO5Qq1MuNYrEZPGi7tdM3bP3mr2QOnqjhHaHIcM+riY0o5WcVrtpI2uWqVcvacVlmjuxtyT5ctoGsxvpz0LVuBLHU4lnZcrJibWY2mlouOWJGLk900e9uo7JM0zXPa3PLMDljhT4c0GWq3Wu66Kb9TTV9VUL1RQUdYtRCyLVVdfbmsbkdkmqq7c92wDoCbSJovjwDgnR9pu4qsutZZKWpq1radZG0r3MRGOlkT2Ucjk7Kbeyqoigc18ISw6OcOaQ7AuhK/vr6iZUkWKiq1qG01QkjeK4qTfrKvvc1VMk5cgP6RUHVHUMHVer1RxbeN1d2vkmtl8+YH7gAAAAAAAAAAAAAAAAACN4zx1g7BzqduKcS2uzuqGvfC2rqEjWRGZa2qi7VyzTdygcX8EOZl+4VeJcV0eaWlkdyrpJ5E1Wsill9grlXdmjs9vIvIBaOJMR8FfTFV3CpxDV0FuucDljWvqHLQTzNbsSRj0XVlTkR2a5dhAK04C0UtJwhcR0WGK6qrcMx0dS18726qTxNlalO9ybkeu9O+75QO7gAAAAAAAAAAAAAAAAAAAAAAAAAAAAAAAAAARTSjo/wAN6ScOR2DFEE89DHUtqWthndE7XajkRc07GTl2AZuAcJ2fA+EqLC9gilittEj0hZLKsjk1nq9c3LtXa5QIrdtCmBLppRi0k1dHWuxDFUQ1DZW1b0j14mtaz2G7c1NgEtxzhe04zwnX4Yvkcstur2IydsciscqI5HJk5NqbWoBrNFejrDOjSwT2TCtPUQUc9S6qe2ad0q8YrWtVc17GTU2Aa6+6IMF3rSbQ6Ra6lq3X+hdE6CRtU5saLHnq5s3LvAnM9LT1CxrPBFKsTteNXsR2o7lTPcvygRbSpo6wzpLsEFkxVT1E9HBUpUsbDO6JddGuai5p2MnLsA0uMdCWAsWYPw/hS8UdbJa8PxJFQMjq3sc1qMRnsnJtdsam8CHf2SdDWX6Luv8A9TkAvK2UUFuttNb6VHNgpoWQxo5c1RrWo1M17OxEAyAAAAAAAAAAAAAAANDjnB2Gcb2N9lxVZ6a6ULl1kjmRc2O7Zjkyc13yoqKBUlHwS9DdPcG1T7VdKiNHayU0txkWLvbMnKnzgWBi3RHo5xRhmjw5d8KW59voI+LomQs4l1M3kjezJzeVUz29nMCH4Q4MGiLDV8iu8NkqbhUQPSSFtwqnTRRuRc0XU2I7L97MCWaUND+j7SQrZcU2CKorI26sdbC90NQ1Owmu3JVT5HZoBo9GvB50X4Cvcd8tFllqbnCucFTX1CzuhXlYi5NRf3ss05QLZAAAAAAAAAAAAAAAAAAACuNMGhfBWlOroKvFMdwdNQRujgdTVSxZNcqKqKmSou1EA3GjTRrg3R1ZJrThSzx0kNQutUve5ZJahclT2b3ZqqZKuSbkzXJNoEExbwX9D+Iro+4usE9smldrSNt1U6CNy+Bta3+VEAsDRro9wjo6srrThGzxW+CRyPmfrK+WZydl73KrndnLsJnsRAJUAAAAAAAAAAAAAAAAAAAAAAAAAAAAAAwbxeLVZoGT3W4U1DE92o188iMRXZZ5Iq9nJFPiu5RbjWqdG1hcFiMZVNGHomqY49IjVq+vrBndRaPG2dJi87sevHe3/o9mv+PX/GTr6wb3UWjxtnSPO7Hrx3n0ezX/AB6/4ydfWDe6i0eNs6R53Y9eO8+j2a/49f8AGTr6wb3UWjxtnSPO7Hrx3n0ezX/Hr/jJ19YN7qLR42zpHndj147z6PZr/j1/xk6+sG91Fo8bZ0jzux68d59Hs1/x6/4ydfWDe6i0eNs6R53Y9eO8+j2a/wCPX/GTr6wb3UWjxtnSPO7Hrx3n0ezX/Hr/AIydfWDe6i0eNs6R53Y9eO8+j2a/49f8ZOvrBvdRaPG2dI87sevHefR7Nf8AHr/jJ19YN7qLR42zpHndj147z6PZr/j1/wAZOvrBvdRaPG2dI87sevHefR7Nf8ev+MnX1g3uotHjbOked2PXjvPo9mv+PX/GTr6wb3UWjxtnSPO7Hrx3n0ezX/Hr/jJ19YN7qLR42zpHndj147z6PZr/AI9f8ZOvrBvdRaPG2dI87sevHefR7Nf8ev8AjI3HODnORrcT2hVVckRKpm1eced2PXjveTs/mkRrOHr/AIykRsIcAAANTfMS4fscscN4vVBb5JWq6NtRO1iuRFyVUz3me1hr16NbdMz2Na/jLGHmIu1xTrzzo13rg4G7rbL44zpMvB+K6Oe5g4WwXS098Hrg4G7rbL44zpHB+K6Oe44WwXS098Hrg4G7rbL44zpHB+K6Oe44WwXS098Hrg4G7rbL44zpHB+K6Oe44WwXS098Hrg4G7rbL44zpHB+K6Oe44WwXS098Hrg4G7rbL44zpHB+K6Oe44WwXS098Hrg4G7rbL44zpHB+K6Oe44WwXS098Hrg4G7rbL44zpHB+K6Oe44WwXS098Hrg4G7rbL44zpHB+K6Oe44WwXS098Hrg4G7rbL44zpHB+K6Oe44WwXS098Hrg4G7rbL44zpHB+K6Oe44WwXS098Hrg4G7rbL44zpHB+K6Oe44WwXS098Hrg4G7rbL44zpHB+K6Oe44WwXS098Hrg4G7rbL44zpHB+K6Oe44WwXS098Hrg4G7rbL44zpHB+K6Oe44WwXS098Hrg4G7rbL44zpHB+K6Oe44WwXS098Mi3Y1wjca2KioMSWqpqZnascUVS1znrvyREXafNeCxFumaqqJiI6n3bzHC3aooouRMz+US35qt0AAAMOvuttoJGxVtdT073N1mtkkRqqnLtNTEY7DYaqKb1yKZnnnRsWcJfvxrbomY6oY/XHYfjih+uaYOGMB01PfDNwbi+iq7pOuOw/HFD9c0cMYDpqe+Dg3F9FV3Sdcdh+OKH65o4YwHTU98HBuL6Kruk647D8cUP1zRwxgOmp74ODcX0VXdJ1x2H44ofrmjhjAdNT3wcG4voqu6TrjsPxxQ/XNHDGA6anvg4NxfRVd0nXHYfjih+uaOGMB01PfBwbi+iq7pOuOw/HFD9c0cMYDpqe+Dg3F9FV3Sdcdh+OKH65o4YwHTU98HBuL6Kruk647D8cUP1zRwxgOmp74ODcX0VXdJ1x2H44ofrmjhjAdNT3wcG4voqu6TrjsPxxQ/XNHDGA6anvg4NxfRVd0nXHYfjih+uaOGMB01PfBwbi+iq7pOuOw/HFD9c0cMYDpqe+Dg3F9FV3Sdcdh+OKH65o4YwHTU98HBuL6Kruk647D8cUP1zRwxgOmp74ODcX0VXdL9KW92iqnbBT3Kkllf7VjJUVV+YyWszwd6uKLd2mZn8omHxcwOJtUzXXRMRHU2BvNQAAAAAAAAAAAAAAAAAAAABV/CWg4zR2yXLNYa+F2fJmjm+kjc1jWxr1rx/T+vdzWaeeir4T8HNRXHa3oAAAAAAAGbSWqvq4Enp4NeNVVEXWRN3fDVu42zaq3a5437eoN2/Zftt6Rqx8JYb1vdJ6g3b9l+23pGpwlhvW90nqDdv2X7bekanCWG9b3SeoN2/Zftt6RqcJYb1vdJ6g3b9l+23pGpwlhvW90nqDdv2X7bekanCWG9b3S8WxXVEVVpdibV9m3pGpwjhp/wCXul5heDqrE1qp8s+NroGZd+Rplsxrcpjrh7mVzyWDu181NXhLtNC4PzSAAAHPXC9psp8OViJ7ZtREq95WL6VLTs3VxXKez4qTtfRx2qu34KDLOpQDUBqA1AagNQGoHrJShqlRFSLYu32yGWLNc/kwTibccWp1BVfBfaQeQr5nnnNvnOoKr4L7SDyFfMec2+c6gqvgvtIPIV8x5zb5zqCq+C+0g8hXzHnNvnOoKr4L7SDyFfMec2+c6gqvgvtIPIV8x5zb53zLR1EUavfHk1N65oeVWqqY1mH1TfoqnSJTrg8U/VGlyz8kXHSr80Tukh86q3cHX16eKw7O0b2YUdWvhLsBChungAABWumKPKut03bRPbzKi+k59tpR9raq6pj3wuOzFX2dynrj4oGUlaQAAAAAAA9GxZaKl7GvSSLJyIu1V6D434ak4yiJ00fXqNU/CQ869B5vwee0cx6jVPwkPOvQN+Dz2jmPUap+Eh516Bvwee0cx6jVPwkPOvQN+Dz2jmPUap+Eh516Bvwee0cx6jVPwkPOvQN+Dz2jmflVWyengdM98StbvyVc/MexVEvqjFUV1RTENvozj18YUy5ZoyOR32cvSWPZajezKieaJn3I/P6tMDV1zHiuFNh1Zz4AAAAAAAAAAAAAAAAAAAABBNPcHH6LLsuWaxcVKnzSNNHMY1w9X/fzWrYu5uZ1Z69Y76ZcrFYd5h4AAAAAAABNsJ/oSLw3+c8VjM/xM+xtQ0AAAAAAPxrncXRTv7WJy+RQyWY3rlMdcNBopg6o0j4ejyzyrWOX+XN3oNrBxrfo7UvtLc8nlOIq/TMd/F8XX6bi2PzuAAAFJcLin1sK2Wqy9yrnM+lGv4SxbO1fbV09XxVPa2nXD0Vdfwc1luUAAAAAAAAEiSRe4s8FPMSdPJCFq9KX0fTwAAAAADEu65UTk5XIhhxHoNjCx9onnBZplm0mvlyzSC3zP72bmN9JVc/q0wunPMfFeNlad7GzPNTPwh1UUp0YAAAIDpjjzordLl7WV7c++1F9BSNtKPsrVXXPh/padl6tLlynqjxVuUBcQAAAAAABdyghLab83j8BPMYJ5UJX6Uv0PHyAAAAABgX5crc5OVzU8p9UcrYwsfawz9EkWtiSaTL3Old5XNQuOx9G9jaquamffMNPaWvTC0xz1fCVqnS1GAAAAAAAAAAAAAAAAAAAAARjStTrVaN8QRIma9QyO+imt6DWxka2K46k3s3d8lm2Hq/VHv4nIO/aVN+iAAB7kvIAyXkUGpkvIoNTJeRQamS8ig1TXCf6Ei8N/nPJVjM/xM+xtg0AAAAAAMG/O1LNVu/5Spz7BDZwUa4iiOt8aBYOP0p2rNM0ibNJzRuT0m/l0a4in2+D621ubmTXevdj/wBo+Tqos7g4AAAVTwpoON0YpLltgr4X8+s3+om8gq0xWnPEq5tRTrgdeaY+LlQurm4B+lLTz1VQynpoZJppF1WRxtVznLyIibVU+aqopjWqdIfVFFVdUU0xrLadauJ+5y8eIyfhMPndj1474bPmGK6Oruk61cT9zl48Rl/CPO7Hrx3weYYro6u6TrVxP3OXjxGX8I87sevHfB5hiujq7pOtXE/c5ePEZfwjzux68d8HmGK6Oruk61cT9zl48Rk/CPO7Hrx3weYYro6u6Uhiw3iLimf7AuvtU/8AZycneJKnG4bSPtKe+ERVluM3p+yq/jPyfXW3iL4huvicnQe+e4bpKe+HzwZjOiq/jPyOtvEXxDdfE5Ogee4bpKe+DgzGdFV/GfkdbeIviG6+JydA89w3SU98HBmM6Kr+M/I628RfEN18Tk6B57hukp74ODMZ0VX8Z+THrrRdaCFJq62VtLGrtVHzQOY1V5M1TeZLeIs3Z0oriZ6phiu4PEWad65RMR1xMMIzNdgXtcqZicr/AEGviZ+rDawcfXla/BGg1sT3uqy9zoo4/pSZ/wBJT9o6vsqI63QNkaftrlXV4z/p0mVJfAAAAhulyPWw3DJl7Sqb5UchU9sKNcDTVzVR4TCw7NVaYqY56Z+Cqzmq8gAAAAymW24vY17LfVua5M0VIXKipzG1TgcTVETFuqYnqlrzi7FM6TXGvbD69S7n8W1n1Dug94PxfRVfxl555h+kp74Y08UsEjoponxPRNrXtVqp8ymvXbrt1btcTE80s9FdNcb1M6x1JVTfm0fgJ5jVnlQ1fpSzEoqxUzSkqFT/AKa9BtRl+LmNYtVfxn5Nfzi160d8HUNb+x1H1Tug94PxfRVfxn5HnFr1o74Ooa39jqPqndA4PxfRVfxn5HnFr1o74Ooa39jqPqndA4PxfRVfxn5HnFr1o74Ooa39jqPqndA4PxfRVfxn5HnFr1o74fjIx8T1ZIxzHJva5MlQ1rluu3Vu1xMTzTxSyU1xVGtM6w1WI3ZUkbeWT0KLfK3cHH157G/0Ox51txm7WONvOqr6C9bF0a3btfVEe+URtRX9nbp65+CyToKnAAAAAAAAAAAAAAAAAAAAANdieDqnDdzpss+No5Wc7FQx3Y1t1R1NzL7nk8Xar5qqZ98OKme0b3kKc/TE8r0PAC99DWDMJX7AdLX3Ox09VV8dLHJK5z0V2q9ctzk7CoT2Bwtm7ZiqqnWeNyTa3PszwGZ12bF6aadKZiOL847OdMvWywH3NUn05PxG35hh/VVr6XZ1/kT3R8j1ssB9zVJ9OT8Q8ww/qn0uzr/Inuj5HrZYD7mqT6cn4h5hh/VPpdnX+RPdHyPWywH3NUn05PxDzDD+qfS7Ov8AInuj5NlQYBwhBTNigsdOxiKuTUe/pHB+G9Rr3NpM0uVb1d6Zn2fJ+/WPhX4mg+k7pHB+G9R8fSDMeln3fI6x8K/E0H0ndI4Pw3qH0gzHpZ93yOsfCvxNB9J3SOD8N6h9IMx6Wfd8jrHwr8TQfSd0jg/DeofSDMeln3fJW2lK2W2032npLZSsp4+pke9rVVc3K5du1eRCFzK1btXIpojTiXTZzFYjFYaq5fq3p10juhEiPWFq8Uu1bJOnbK1vlQQ3stjXE0+3wbfg1U/G6Q5Jss+Jt8rudzEJPKo1v680I7+oFzcyqKeeuPCZdLFjcVAAACAcIWnSo0RXvZmsTYpU/llYvmzJPJqt3GUe3wQu0FG/l9z2eMOPV3l9cuAN9o5qepMf4fqM8kZcoM+8r0RfOauOp3sNcjqnwb2WV7mMtVfqjxdsKrkVU1nbF5TnLrrzWd2zucBrO7Z3OA1nds7nAazu2dzgZbfap3gPQAAABUfCbnVuGLXTZr+UrVdl4LF6S1bKUa4iurmj4qRtxXphbdHPV4R/tQBe3MGtvq+wiT5VU1cTPFEN3BxxzK8eCDTolJiKrVNrpIIkXvI9V86FK2jq+tbp7fg6NshR9S7V2fFfhWVzAAACM6TYuMwhUu7R8b/tJ0le2po3strnmmJ96ZyCrdx1Mc+vgp85U6CAAAHi7l7x5PIRyrusCr6h0G1fzaPs/uodqy2f/p2v20+Dl+O/E3P3T4s3NeVec3WqqTSJ+ttZn2rPuIco2n/ulz2eEOh5D+Bo9vjLOp/zaPwE8xWKvzY6/Sla0CfkWJ+6nmO82Y+zp7IUKv0pfZlfIAAAV3iZ+vfqteR6N5kRDje0VzfzO9PXp3RC4ZfG7hqEWxK72EDflcvmIihNYKOOqUw0OR5UVxl7aZjeZufpOi7F0aWrtXPMR3R/tXtqKtblunqnxT0uyrAAAAAAAAAAAAAAAAAAAAAPmZqPicxdzkVF+c8l7TO7MS4hqolgqpoV3xyOZzOVPQUyqNJmH6etV79FNXPET3w/I8ZADojg1z8ZgWrgz2w3B/2mMUsWUzrZmOtxj+odvdzOivnoj3TMLQJNQwAAAyaf3NO+B+gAAAApPS5Jr41mbn7nBG3yKvpKzmc64ieyHTNmKN3L6Z55n5IkR6wtJjJ+Vpa3tpm+RFUQkspjW/M9SZcFqBXYhvVT2GUkcf0nqv8ASTGUR9eqepXP6j3NMLYo56pnuj/boInnIwAAAi2lumWq0Z4ihRM1W3yuRPla3W9BuZdVu4q3PXCPzWjfwV2OqXE67dp0RyQAybVMtNdKSoRclinjfzORfQfFyneomOplsVbtymrml3btd7JGuVF2psOZOyxJqu7V3MHpqu7V3MA1Xdq7mA81Xdq7mAy2+1TvAegAAACkOFFUZyWGlRdyTyL9hE9Jc9kqOK7V2fFzvbu59zR+6fBSZcnPWqvi/lYm8jVXymnieWG/g4+rMui+CZTcXgW5VK75rk5PmbGzpUou0NWuIpjq+LpuydGmEqq56vhC5SAWoAAANLjmPjcJXJifAK7myX0ERn1G/l16Orw40jlFW7jbc9ak13nIHSQAAA8XcvePJ5Bdth/QdB/DR/dQ7Vlv4O1+2nwcvxv4m5+6fFmm61VTaRf1urPBZ9xDlG0/90uezwh0PIPwFHt8ZZtN+bR+A3zFZnlY6/Sla8SZRt7yHerfoQoNXLL6Pt4AACgVpd3691q38szvOcQzWvfxt6r9U+K64WN2xRHVCM4kd+XhbyMVfKalHImMFH1ZlYGiSPVw3LJ8JUvXmREOn7H0aYGqrnqnwiFT2kq1xcRzRHxTEtavAAAAAAAAAAAAAAAAAAAAACgcY41p+pMY3qmyy4q4Tt/7jin343btUdcv0llF3yuAsV89FPhDUGJIgF68F+fWtd9ps/aVEMiJ32Kn9JO5PP1ao7HJ/wCpFvS/h6+eKo7pj5rjJhzRGtJt8r8OYMrLzbWQPqKd0eyZqubquejV2IqcprYu7VZtTXTywm9ncusZlmNGGvzMU1a8nLxRMxz8ym/Xuxd+yWf6h/4iG4Vvc0Omf/HmWevX3x8j17sXfsln+of+McK3uaD/AOPMs9evvj5JLYdK2JKy2snlp7ajlc5MmxORNi+EJza9zQh8ZsbgLF2aKaqtO2PkzvXNxD8Bb/q3fiPOFr/NDW+imC56u+PkeubiH4C3/Vu/EOFr/NB9FMFz1d8fI9c3EPwFv+rd+IcLX+aD6KYLnq74+R65uIfgLf8AVO/EOFr3NB9FMFz1d8fJFr5c6i8XSa41SRpNNlrIxMmpkiImXMaN69VermurllO4PCUYSzTZt8kc/ewjE2kdxu7/AFWmZyyOXmT/ADPYS+Tx9eqepZ3BXgyo7/U5e2mhjRe81y/1E5lEcVc9ikf1Iua3MPR1VT74j4LtJlzIAAANdien6qw3c6XLPjqOaPLvsVDLYq3btM80wwYqnfs1088T4ODk9qneQ6W43PK9AAZfqpc03XGt8Yf0mPyVv1Y7mbzm760956qXP4yrfGH9I8lb9WO485u+tPeeqlz+Mq3xh/SPJW/VjuPObvrT3nqpc/jKt8Yf0jyVv1Y7jzm760956qXP4yrfGH9I8lb9WO575zd9ae9I4blceKZ/tCr9qn9+/k75JU2bekfVjuhDVYu/vT9ee+X36pXH4wq/r39J9eQterHdDzzu/wCvPfJ6pXH4wq/r39I8jb9WO6Dzu/6898unNCbZU0aWmSaR8kkqSSK57lVVzkdltX5Mjm2fTHn9yIjijTwh2DZmKuDLU1TrM6z75TQiE8584TU+vi22wZ+50OsqfK57ugvmylGmGrq55+DmG3NzXF26eanxmVTlpUhpryudYicjENHEemkcJH2bqbgyQcToqpZMsuPqp5Pt6v8ASUDPatcXMc0Q6rs1Tu4CmeeZWcQ6wAAABhX6LjrJXRdvTyJ9lTTzCjymFuU89M+DZwdW5iKKuaY8VCptRF+Q4pHI6jPK9PQAAeLuXvHk8gu2w/oOg/ho/uodqy38Ha/bT4OX438Tc/dPizTdaqptIv63Vngs+4hyjaf+6XPZ4Q6HkH4Cj2+Ms6l9wi8FvmQrX/JiuelK12+1TvHeqeSFCnlen08V1e5pUvFYiSyIiTOyRHqcYzm/c4QvRFU+lP5yuODt0+Qo1iORh8dN8LJ9NekjfL3fXnvn5tnydPNHcLNN8NJ9NR5e76898nk6eaO58Lt37TFM6vpHsQOzr0TkjT0mWjkSmDj7P2rQ0ZxcXhCld8I6R/2l6DrGy9G7ltE8+s++VIz+vex1Uc2ke5JSwoYAAAAAAAAAAAAAAAAAAAAB47cByNpfg6n0mX+PtqrjPpNa70lUxsaYivtfoTZa55TJ8PP6dO6ZhFDVT4BcXBgn1bxfKbP29NFJ9F6p/UTGUT9eqOpzX+pFvXD2K+aqqO+In4L2J1yZFdL0HVGjS/xomapSLJ9FyO9Bq46NcPX2LBsrc8nnGHn9WnfEw5SXeVR+g4eATbCf6Ei8N/nPJVjM/wATPsbYNAAAAAACL44d+VpGcjXL5UPYTmTR9WuexdHBhp9TBNfU5e7XByfRYxPSpYMpj7KZ63Nf6iXd7MbdHNRHvmVskqoAAAAfMjUcxWrucmQ/N5Maxo4HuMK01wqadUyWKZ7OZyp6Dp1FW9TEuM3qNy5NPNL8D6YwAAAAAAkSSL3Fngp5iTp5IQtXpS+j6eHygdcaMYFptH1hiyy/1GNy99Uz9JyrNa9/G3Z65dxySjcy+zH6YSMj0q5o4Q0/G6SJo8/caWFnkV39R0XZqndwMTzzLke2Ve9mUxzREfH4q7LAqrR3Rc69/wAmSeQj78/XlKYaPs4df6B6fqfRLh9mWSup3SL/ADPc70nO82q3sZXPW65kdG5gLcdXjMpwRyWAAAD4mZxkT413Oaqc6HxXTvUzTzvqmrdmJc+vbqPVi+9VU5jhkxpOjq8TrGrwPQAB4u5e8eTyC7bD+g6D+Gj+6h2rLfwdr9tPg5fjfxNz90+LNN1qqm0i/rdWeCz7iHKNp/7pc9nhDoeQfgKPb4yzqP3KHvN9BW4j68drFd5Z9q2E3Id6jkUGQ9Fa3lc7vWf9Z3nOI5vOuPvfunxXTCfcUdkMQj2yAAI3enZ3OX5Mk8hmo5ErhY0tQt/A8fFYTtrP+Qjufb6TsOQ0bmXWY6vHjc+zarextyetuiXRwAAAAAAAAAAAAAAAAAAAAAoHLPCCg4nSlXuRMuNhgk+xl/SVnMo0xE+x3XYe5v5NbjmmqPfr8UANBbgCzuDbPxePaiHPJJrfInf1XMUk8qnS9Mc8KJ/UK3vZXTVzVx74mHRRYnF2pxlB1VhC80+WfGUE7fsKYr9O9aqjqlIZTc8lj7FfNXT4w49aubUXlRCnv0pPFIHibYT/AEJF4b/OeSrGZ/iZ9jbBoAAAAAARDGjs7nE3tYU8qqewsOURpZmet0HwdoOJ0Y0j8ts1RPJ9tU/pLLlkaYePa5Ft1c384rjmimPdr8VikgpwAAAFA4a0g03UeO7/AEyplxdxnRPrFX0nR8HVvYeieqPByHMaNzF3Kf1T4tGbLSAAAAAyXkAZLyCRJIvcmeCnmJOnkhDVelL6Pp8i55L3g9h2ZhyHqawW6nyy4qliZl3mIhyHFVb96urnmfF3zBUbmHt080R4M8wNlyppnqFqNJt6fnnqSsjT+WNqHTsio3MBbjq+MuL7T17+aXZ64juiIQ8l0C0Fe7OsmXkcpHXZ1rlL2I+pDtrRvTdR6P8AD9NlkrLbAi9/URVOa42rexFyeufF2LLqNzCW6f0x4JAardAAAAoFB3iPibvWxdpUSN+0pxLG0eTxNynmqnxl1PC1b9iirniPBimszgADxdy948nkF22H9B0H8NH91DtWW/g7X7afBy/G/ibn7p8WabrVVNpF/W6s8Fn3EOUbT/3S57PCHQ8g/AUe3xln0O1lP3megrlEa3IjrjxYb3LV7VrpuO9KEAVpdlzutX/1n+dTh+aceNvfuq8ZXXC/c0dkMU0WwAFAit0dnXVDv3l8hmj0UxYj7OleVij4my0MWWWpTxt+yh23AUbmFt081MeDmWMq38RXVzzPizTba4AAAAAAAAAAAAAAAAAAAAABzdwnKdIse0k6J7tbmZ99r3p0FezaNL0T1Ozf09ub2W1081c++IVWRa+gE70CzcTpPtzc8klinj541X+k38tnTEU+3wVPbe3v5NdnmmmffHzdOlmcIfnVRJPTSwqmaSRuYvzoqHkxrGj7t1zRXFUflMS5hTRRjxEySx5omz85i/EVng7E+r4O7/TXJZ4/Lf8ArV8nvrU49+Iv/uYvxDg7Eer74PppkvTf+tXySnDujzGFNao4Z7RqvRzlVOPjXs9884OxHq++EFjtp8ru3pqou6xxflPybHrDxX8V/wDfZ0nnB2J9X3w1PpFl3Se6fkdYeK/iv/vs6RwdifV98H0iy7pPdPyOsPFfxX/32dI4OxPq++D6RZd0nun5PibA+KIYnyyWzVYxqucvHM2Im1eyeTl+IiNZp8H1TtBl9dUUxc456p+SOJtTM00y9AhWLHa18kTtWMb5P8z2FlyyNMPHtdO6FYOp9F1hZlkrqbjF/mc53pLVgY0w9Lh+1lzfznET16d0RCYm2roAAAF3AcY6cKfqXSviGPLLWqkk+kxrvSdAyqrewduepyrPad3H3I6/HjQwkESAAAFv8HLCOHcUNva362R13U3E8TrSPbq62vn7VU5EIDPMZew00eSq011WvZrL8Pi4ueWp1005+vmW960ujvuZg+vl/GQHDGN9fw+S0cAZf0fvn5nrS6O+5mD6+X8Y4Yxvr+HyOAMv6P3z82wZotwGjGomHYURET++l/EZYz3MI/8AJ7o+TD9Gcrn/AMXvq+b31rsB9z0P10v4hw9mHST3R8j6MZV0Pvn5nrXYE7nofrpfxDh7MOk90fI+jGV9D75+aZMajWo1qZIiZIhETOqdiNI0h6HrkHSDP1Tjm+T9tXzZfM5U9B1fLaNzCWqf0x4OF5zc8pj71X6p8WiTebyMRybOSd6JtVzlRPnUi6p45lN244oh3paIOprVSU+WXFQMZl3mohzG5VvVzPO7RZp3LdNPNEMo+GQAAACgUfjGPisVXNm7/WHO58l9JxzOqNzML0fqn38bpeV1b2Dtz1NSRjfAAHi7l7x5PILtsP6DoP4aP7qHast/B2v20+Dl+N/E3P3T4s03WqqbSL+t1Z4LPuIco2n/ALpc9nhDoeQfgKPb4y2Nv2pTJ4HoK9ZjW9T2x4sF/wD5e1ap3hQwDRy4Zt8s8k0j6hXSOVyproiZqufIVa7sjgbt2q7XNUzVMzyx+c68yToza/RTFMRHE+mYZtTd8Mju/Kp907JZZTy0zP8A+peTmuJn8/dDAxRa7fQ2lZKemayRZGtR2aqvy71IjaTJ8DgcDNdm3pVrEa8fzbeXYu/fv7tdWsaSiaHPk+icv5Wreie/kVOdTZpjemITdP1aI6oX/ExGRMYm5rUQ7nRTu0xHM5TVO9My+j6eAAAAAAAAAAAAAAAAAAAAAAFBcKin1btYqrL28E0efec1fSQWbx9ame11j+m9zWzfo66Z90qXId0sAlGiefqfSTYJM8s6xrF/mRW+k2sFOmIo7UDtRb8pk+Ip/TM92kusE3FrfnoAAAMmn9zTvgfoAAAavFkvEYYuc3a0sn3VMGJq3bNU9Ut7LaPKYy1T+qPFzymxEQqDr4BA8Rv1r1WO7V+XMh6teAp0w9EOu8BU6UuCLHTomWpb4EXv6iZlvw9O7apjqh+es5ueVzG/Xz11eMt2ZkYAAAADkjhLU/E6Wa56Jlx9PBJ9jV/pLxkdWuDiOaZc02mo3cfVPPEeCtSYV8AAAL84JPtMSd+m/wDyFW2k5bft+C77H8l32fFfBWF0AMxvtU7wHoAAB4q5IBxddZuqbpV1Crnxs8j+dyqdgs07lumnmiHAMTX5S9VVzzLFcuTVXkQysENRh+Dqu/26myzWariZ9J6J6SFvVbtuqrqlYsLRvXqKeeYd5oc0dkAAAAAApvSRHxeMazLc9I387E6Dk+01G7mVzr0n3Q6HkVW9gaOrXxR0gUuAAPF3L3jyeQXbYf0HQfw0f3UO1Zb+Dtftp8HL8b+JufunxZputVU2kX9bqzwWfcQ5RtP/AHS57PCHQ8g/AUe3xlsrZtdSJ8sfoK/h+O/RHXHjDXxHJX7VqHd1EAAACOY8flboGdtNnzIpS9trmmEt089XhEpnJadbtU9XxQ1y5NVV7CZnNVkiNeJGbOzj7xRR5Z8ZURpzuQkcFRv4m3Tz1R4pXFVbliurmifBfaHbXLQAAAAAAAAAAAAAAAAAAAAAABS/Cog1rRYqnL2lTKzPwmIv9JD5vH1aZdK/pvc0v36OemJ7p/2oIgnWQDZ4VqW0WKLTVvcjWw1sL3OVckREema8xls1btymeuGjmlqb2CvW4/OmqPdLrFcS4czX/wBQWnf+2x9Ja/L2vWjvfnmMpx+n3Ff8avk865cOd0Fp8dj6R5e160d73gnH9BX/ABq+R1y4c7oLT47H0jy9r1o7zgnH9BX/ABq+R1y4c7oLT47H0jy9r1o7zgnH9BX/ABq+TNpL9Y3wI5l5tz2qq7W1TFTznnnFr1o72OrLsXTOk2qo/wDzPyft6t2b43oPGGdI84tetHe88wxXRVd0sijraOsRy0lXBUIzY5YpEdl38j7ouU1+jOrDdsXbWnlKZjXnjR+59sSO6SpOKwPc3Z7XRIz6TkT0mnj50w9SYyCjezG1HXr3RKiF3lVdVA8lXlzznuVTltWSVyJ865H0uGH+pZp6oh2pbYkgt9PAiZJHE1mXeaiFyojSmIfmi/Xv3aqueZn3sg+mIAAAAHL/AAsaZIsf0FQibJra3PvtkenpQuWz1WuHqjmn4Q57tZRpiqauen4yp4nlWAAACX6OdIN4wMlalqpaGfqzU4zqljly1c8ssnJ2ykfjsut4zd35mNOZK5bm97L4q8nETrz/AP8AUu/tAYv+LLJ9VJ+M0fo9hvWq93ySn0txfq090/M/tAYv+LLJ9VJ+M8+j2G9ar3fI+luL9Wnun5t1HpyxUsbV9T7PtRF9zk5PDNyNlsJMa71Xu+SPq23x0TMblPdPzfXr44q+L7R9XJ+M+vorhPWq93yefTfHepT3T828wDpYxJiHGFus1TRWxkNTIrZHRxvRyNRquXLNy8ho5ls/hsLha71NU6x2fJJZRtXjMbjLeHrppiKuaJ5teddibinOgsO9zdTWetqN3FU8j8+81VMtinfu0088x4sGKr3LNdXNE+DjDPNM17O07A4BPK+KhdWnkdyMXzHzXxUy+rca1Q+tFlP1VpIw7AqZotxhVf5Xa3oIDMKt3C3J6pWnKqN/G2o/VHi7cTcc7dbAAAAAAqfSvHqYnY/4SmYvMrkOY7XUbuPieemPGV72cq1wcxzTPwREq6fAAHi7l7x5PILtsP6DoP4aP7qHast/B2v20+Dl+N/E3P3T4s03WqqbSL+t1Z4LPuIco2n/ALpc9nhDoeQfgKPb4y2dp2y0afvR+dCCwka4m3+6PGGtifRr9q0lc1N7kTvqdymumOWVG0mXw6ogb7aaNO+5DFVibNPLXHfD6i3XPJD6jeyRqOY5HNXcqLmimWiumunepnWHzMTE6S+j6eIpj9/5nH4bvMhz/bi59zR+6fBPZJT6c9iI1btWlldyMd5ihRyrDbjWqIajBkfG4qtjMt1Q13Mir6CbySjfzCzH6o93G3M1q3cHdnqXgh2JzQAAAAAAAAAAAAAAAAAAAAAAAVXwm4OMwDTTInuNwjXna9vpIzNY1sxPWvf9Pbm7mdVPPRPumJc3FddoAADVb2qcwe6yZJ2qcwNZMk7VOYGsmSdqnMDWU1wmjfUSL2Ke3f2PlPJVfM5/+zPZDbZJyJzBoaytjQfEjbNcJsk9nUo3mYnST+UR9nVPWoG19euIt081PjKwiXVFD9L8vF4Mkbn7pPEzy5+gjs0nTDz1zCxbL0b2PieaJ8NFKladLe55beTaDTVA7LEtZiKhh3rPWxN+lIhktxrXEdcLXi6/I4S5VzUz7ol2qm4uT8zgAAAAAc7cL2nyuWHqvL28M8ar3nMVPOpatnKvq3Kez4qPtfT9a1V2/BQ5ZlMAADIAAACRJIvcWeCnmJOnkhC1elL6Pp4n2gGHjdJlE/LPiYZpPsKn9RBbR1buAqjnmPFZ9kKN7M6J5onwdOnN3X0f0jVHUuA75NnkraCVE76tVE85vZZRv4y1H6o8UZnNzyeAvVfpnwciHV3DH4XBcqKZf3THd9CWWxGtyG90AU3VWlyxtyzSN8kq/wAsT1K3nFW7g6/Z4rfs/RvZhb9vhLsVNyFCdSAAAAAArPTDHlc6CXtoXN5nIvpOebZ0aX7VXPEx7/8Aa57MVfY3KeuPBBSmLOAAPF3L3jyeQXbYf0HQfw0f3UO1Zb+Dtftp8HL8b+JufunxZputVU2kX9bqzwWfcQ5RtP8A3S57PCHQ8g/AUe3xlm035vF4CeYrM8rHXH1pfqqqu9VXvqJqmeWXxERDzJORD50h6sewR8VZqRmWWULV50zO15Ja8ll9mn9Me/jUzG1b2IrnrlnEo1UMx2/O407O1iz51/yOabbV64u3TzU+M/6WTJY+yqnrRS7O1bdOv7mRTaeVPYeNbtL8tG8fGYxo1Xcxsj/sqnpLLsxRvZnb6tZ9xntW7ga+vTxXGdYc9AAAAAAAAAAAAAAAAAAAAAAAFf8ACBp+P0XXJyJ7jJDJzSNT0mhmVOuHn2LbsRd3M5tRzxVH/rLlsrLuzwA72q5cgPzdBYd0Q4Nr7Fb7hItzc6ppY5nZVWSZuairlk35SwWstsV0RVOvHHO47j9uM1w+JuWad3SmqY9HmnTnbSPQ5gdu+krn+FWv9BljLMPzT3o+rbzOJ/5Ux/8AmFPaZsOW3DGL2W+1QvhpX0kcqNfIr11lVyLtXvIQ+Ps02bu7RHFo6TsjmuIzPATexE61RVMckRzaciFGktKbYT/QkXhv855KsZn+Jn2NsGguTQ1HqYRc/L3SqkdzZJ6CyZVGlj2y5vtXVrjtOamPjKakkrSA6bZdWwUUOft6rPmY7pInN6tLUR1rZsjRriq6uanxmFSFfdBflVu1KWZ/axuXyB9241riOuEa0ZQdUaQsPRKmadXxOX+Vdb0GzhI1v0R1pvaG55PK8RV+ir38XxdhpuLa/OgAAAAAFGcLuDWw/YqnL3Oskjz8Jmf9JY9nKvtK6eqPFUNrqfsbdXXLnEtqhgFl8HGmt9dpAkoLnRU1ZBPQSpxc8TXtzarXZ5Km/YpDZ5XXRhoqomYmJjkWHZqi3cxc0XKYmJieVeVz0T6P6/NX4cgp3L76lkfEvMi5eQrVvN8ZRyV69vGuV3IcBd5benZrCpNOOjGxYPw9T3iyzVy8ZVtgkinkR7WorXKiouSLvaT2U5pdxV2bdyI5NVYz7JLGCsxdtTPLpx9kqdLAqYJEki9xZ4KeYk6eSELV6Uvo+ni0ODXBxmOaqb4KgevO9iFa2pr0wlMc9UeErlsRb3sdVVzUz4w6LOfuqIZptn4jRjeVzyV8bI0/mkahL5DRvZhb9vhKB2nubmV3Z7I98OVzpzi7Fuy5UL/lVE8phv8AoS2MNGtyE24L9Px2lJkmXuFDO/vZ6rf6irZ9VphNOeYXbZanXHa80S6vKS6QAAAAABX+mOPOC2y5bnyN50RfQUbbSj6lmrrmPBa9l6vrXKeqFclCW99Ix6xrIjHKxFyV2WxF757u1bu9pxPnejXd143yePp4u5e8eTyC7bD+g6D+Gj+6h2rLfwdr9tPg5fjfxNz90+LNN1qqm0i/rdWeCz7iHKNp/wC6XPZ4Q6HkH4Cj2+Ms2m/N4/ATzFZnlY6/Sl+h4+RdqKh5pqLQpWcXTxR9qxqcyHecNR5OzRRzREe5RblW9XMv1Mz4QXGj9a+Ob2kbU86+k5RtfXvZlMc1MfP4rTlFOmG155lFr67K2yJyq1PKVqjlTeFj7WGXoni18Tvf8HTPXnVqFv2Qo3sfM81M+MNbaOvTCRHPMfFbB01RAAAAAAAAAAAAAAAAAAAAAAABE9L8C1OjO/xJtVKNz/o5O9Bq42NbFcdSe2XueTzfD1fqiO/icjrvKo/QsPAPU3gl1lorn6p0cWCVVzXqFjPo5t9BbMHOtiiep+eNprfk83xFP6p9/H8UlNlBq/0oaNWYzuEFxiuq0VTDT8SjXQ67HIjlcirkqKi7VI/GYHziqKt7SVw2b2snJrVVmq1v0zOvLpMcUR2fkqm9aHsZ0Gs6mp6W5xp2aaZEd9F+S+cirmWX6eSNex0HB7d5TiOKuqbc/qji741bDB+EMTvtrKZbFXRytkcjklj4tE28rskNenB36p0iiWrmmd5fF2bkXqZiYjknXwTO3aMr3Pk6sqqSkb2URVkd5Mk8pt28puz6UxHvVu/tZhKOK3TNXu/73LLwpZmWGyxW1k7p0jVzlerdXNVVV3E3hrEWLcUROqlZljpx2Im/Maa6cXY2pnaKs9OUvsbTAm/OV68zU6SEzifQjtXbY6jju1dkeKsiEXdh3p+paKt3/KcnPsENjCRvX6I62LoMp+qNKdmTsRulkX+WN3Sb2XxriKWfbK55PJr3XpHfVDq9NxaHAwAAAAAKk4VVOkujaGbLNYLjE7PkRWvb6UJzZ+rTFTHPEq1tTRvYKJ5qo+LlkujnIBPeD9U9TaWbNtySZZYV/mid6UQi85p3sHX1aeKb2dr3Mwo69Y9zrdChuoIvpPwkmNcKusvVqUT+PZMyVY9dEVuexUzTfmbuX4zzS95TTX8kdmmA8/sTZ3tOPVRF60EYzo9Z1BJbrmxNyRzcW9fmeiJ5Sz2s/wANX6esf96lLv7LYyj0Jir26eKEXvBmK7LrLc8PXKnam96wK5n0m5p5SStY3D3vQrifah72WYux95bmPY3Vlw5f7rFGlus1fVIrU9lHA5W7uXLIlLmNw9imPKVxHtQtnLcXiKp8lbmfYmVo0O4zrdVainpLe1ezUToq8zMyLvbSYG36MzV2R89E3h9jsxu8dURT2z8tVq6KdHT8F1VXWVFzZWT1MTY9VkKtaxEXPeq5r5CrZxnUZhTTRTRpETryrrkGz05VVVXVXvTVGnJosIglnVxwiZuK0dPjz92q4Wcyq70Fg2Zp1x0TzRKq7Y17uWzHPMfNzWdFcjYN6XKkanK9DXxE/VbWEjWtaPBJg18Y3epVPcrejE/mkT8JUdoqvsaI6/gv2yVGt+urq+LpgqC/AAAAAAQvS7FrYfp5e0qk8rXIVHbGjXB0Vc1Ue+JWPZmvTE1U89PxhVpzdd080TPRzLnA5EVF4t2S7UX2yF62LqiYvUT1T4qltRTpNquOv4JHcsLWKuzdJQsievv4Pya+TZ5CxYrZ/L8Tx1W9J544v9e5C4fOcZY4or1jr4/9q7xPh6rtdfO2GmqpKNuXFzKzNFTLsqnynPc2yW9gr1UUUVTRHJOnV1LnluZ28VapmqqIr/ONfmtGw/oOg/ho/uodOy38Ha/bT4KHjvxNz90+LNN5qqm0i/rdWeCz7iHKNp/7pc9nhDoeQfgKPb4yzab83j8BPMVmeVjr9KX6Hj5frSs4yqhj7aRqeVDPhbflL1FHPMR74Y7tW7RVPVK0EO7KMHor3FD9e/VS8jkbzIhxzaSvfzO7PNMR3RC35dTphqP+/mjWInZULW8sieZSHo5Uxg4+0nsbvQ9HncrhN2sLG87lX0F42Mo1v3a+aIjvn/SL2nq0tW6eufBZh0NTAAAAAAAAAAAAAAAAAAAAAAABqcYwdVYTu9NlnxtDMznYpiv071uqOqW/ldzyWOs181VPjDi9m1jV5UQp79KzyvQ8egdP6CZ+O0YWtM9sTpouaR3SWfLqtcPT7fFwbbW3uZ1e692f/WE4N5VQABk0/uaAfoAAAVJptl1r7QQ5+0pVdzu/yK/m9X2lMdToGyFGmGuVc9XhH+0BIlbWsxO7VsdR8qNbzuQQ3cvjXE0/9/JsuDfAs2klJcvcKKZ/OrW+kksrjW/7Jae31zcynd56qY8Z+DposjiIAAAAAFdcIyn4/RJdnImawuhl72Ureklclq3cZT16+CD2io3svr6tPFyGpe3MACS6LKnqTSPh2ozyRLjCi95ztVfOaeYU7+FuR1Skcpr3Mbanrh2fuXLkOdutAAD1FVE2KqAZTEyaneBo+gADMCpOE5UauGLXTZ7ZK1X5fI1jvxFq2Uo1xFdXNHxUjbm5phLdHPV4RPzc/l7cwa6+L+Tib8qqauJnihuYOOOZXXwQKb9ZKtU/Z4kX6ar6CmbSVfd09vwdF2Qo4rtXZ8XQJV11AAAAAAi+lCLjMIzO+Dljd9rL0lc2qo3suqnmmJ96b2fr3cbTHPE+CoTli/pnonkyu1bH21Oi8zv8y4bGV6Ym5Tz0+E/7VraenWxRVzT8FjHRlKegeAAKm0i/rdWeCz7iHKNp/wC6XPZ4Q6HkH4Cj2+MtlbIZKnqeniRFfIjWtzXJM8iAw+HrxN6mzb9KqdIa+IuU296urkhJqTCMjttVVtb+7G3PyqXLDbE3J4792I6ojX3z8kJdzqmPu6e9uKHD1tpJGyNidJI1UVHSOzyVPk3FjwezGAwtUVxTNVUccTM/n4I69mV+7ExM6RPM2xYWgAVreH8Zdqt/LM7znEc2r8pjr1X6p8V1wlO7YojqhHsSL+SgbyuVfIaVtK4KPrTKV6HI8qa5TZb5I28yKvpOh7F0fUvVdcR7lf2oq+tbp6pWAXhVQAAAAAAAAAAAAAAAAAAAAAAB+dTEk1PJC7c9itX50yPJjWNH1bq3Koqj8nEErOKlfEu9jlbzLkUyY04n6foq3qYq53yePoA3uHcX4lw8xIrPeKmmhRyu4nNHRqq711XIqGe1ibtqNKKtETmGRZfmM72JtRVPPyT3wndl043+n1WXW10Ne1N7olWF/pb5EN63m1yPTiJ9ypYz+neCuazh7lVE9f1o+E+9NrLpowjW6ra9tdbHrvWWLjGJ/MzPzG9bzSzV6Wsf96lWxmwOaWNZtbtyOqdJ7p+ab2bENivLEdarxQ1mfvYpkV30d/kN23ft3PRqiVXxeV43BTpiLVVPbE6d/I3cbmxw6z1RqJvV2xEMkzpytGImqdIai5Ytw7QKrai7U2unvI3cY7mbma1zGWKOWqElYybHX/Qtz7eLxRy46ULVFmlDQ1VSvK/KNvpXyGncze3HoxM+5M2NksTV97XFPv8A9e9HLjpMvs+baSCko29hUasjuddnkNO5mt6r0YiEzY2UwdHHcmavdHu+aJ3a5191q+qrjUvqJtXVRzkRMk5ERO+R927Xdq3q51lP4XCWcLR5OzTpDEMbZabGDtWz6vbStTzqISOVRrf16pSzguQa2KrvU5e50LWfSk//AJJfKI+0qnqQH9RrmmCs0c9Uz3R/t0MT7kAAAAAAER0y0/VWi3EcSJmqUL3/AEfZeg3ssq3cXbnrRucUb2Bux1eHG4sXedCcmAPqN745GyRvcx7VRzXNXJUVNyop5MRMaS9iZpnWEysulPHlp1Ww4iqaiNv93Vok6faRV8pH3cpwl3loiOziS1jPcdZ4ouTPbx+KbWXhB3mLVbeLDQ1aJvfTyOhdzLrIRt3Z21P3dcx28fyTFja27HFdoiezi+ab2XTtgutRra5lxtj13rLDxjE+dir5iNu5BiqPR0q/71pixtRgrnp60+zXwTay4wwrekRLXiG21Ll3MSdGv+i7JfIRt3BYi16dEx7ExZzHC3/u7kT7W2umILHaYta5XehpMk3SztRebPM8s4O/f+7omfY9xGPwuG+9uRT2zCHXfTHg2h1m009XcXpuSngVG87skJexs1jbnpRFPbPy1QOJ2wy6z6MzV2R89ENvGnavfrNtNip4U7D6mVXr9FuSeUl7GyduPvbkz2Rp46oDE7c3J4rFqI7Z190aIbeNJuNblm197lpmL7ylYkXlTb5SYs5FgbXJb17eP/SAxG0+ZX+W5p2cX+0Tq6uqq5Vlq6maokXe6WRXrzqSlFui3GlEREdSEuXrl2da6pmet+J9sbVXxfykSfuqpqYnlhv4OOKZdDcEmn1MH3eqy91uGrn4Mbeko20VWt6mOr4umbJU6Yaurnn4LqK8tYAAAAAGjx9HxmELi3LdFrcyovoIbaGjfy29HVr3Tqk8mq3cdbnr8VKrvOROjJFo8raehxDxlVPHBE+B7Fe9ckz2Km35iw7MYq3hsdvXaoiJiY1n2IbPsPXfwmluNZiYniWpBNFOzXgljlbyscjk8h1G3douxrRMTHVxqDXRVbnSuNO19mR8gACptIv63Vngs+4hyjaf+6XPZ4Q6HkH4Cj2+Mt5hX9J2/wAJvmI/I/7nZ/d82hmP3Nz2rKQ7OpYAAxaqvo6ZF4+qhj+RXJnzGjiMywmG+9uRHt+DNbw9256FMyreZ2vNI/tnKvOpxO9Xv3Kq+eZnvldKI3aYhocSO/KwN/dVfKKORJYKOKqU80RRauHqiX4Sqd5GtQ6ZsdRpg6queqfdEKrtLVriqaean4ymhbldAAAAAAAAAAAAAAAAAAAAAAABQOLcVQdS4ou1NllxVdOzmkcU+9GlyqOuX6Wyy55XB2a+emnwhrDE3QAAAAE2ORyLk5Nzk3p856aaxon2Ha2tq7FA2qrKmoRqua1JZnPREz3bVPaq6quKZ1VLHYe1axNXk6Ijk5IiPBmpsTZsPhrPQAADwDQY3dlRU7O2lVeZP8z2Etk8a3Kp6visfgqwJq4gqlTbrQRJzPVfOhN5RHpz2KZ/Um5x4e3+6fCF5E05eAAAAABqsY0/VeErxS5Z8dQzsy78bkM+Gq3b1E80x4tbGUb+Hrp54nwcJJ7VO8h0lx6eV6HgAAAAC7d+0PYnRJIlVY2Ku1dVNq79xJ0+jCFrmZql9H0+QAAAAae9rnVNTkYhpYmfrJHCR9R1BwXoOJ0WxyZZcfWzyd/JUb/SUHPqtcXpzRDqezFG7gYnnmfktMhViAAAAAA1+JIuOw/cIu2ppE+ypo5nR5TB3af0z4NrA17mJt1dceKiE2oi/IcWdQl6ej6hlkhej4ZHxOTsscrV8h9UXKrc60TpPVxPmuimuNKo17W4osV3+lyRlxklanvZkR6eXb5SXsbQ5jY5LszHXx/796NvZNgrvLRp2cTeUWkKrZklZb4ZU7LonqxeZc0JvD7Z3qfvrcT2Tp80Xe2YtT91XMdvH8m7osdWOfJJuqKV3/Mj1k525k1h9rcBc9PWntjWO+NUXe2dxlHo6Vdk/NB8b1VPW4kqamkmZNC9rNV7dy5MRClZ/iLWIzCu5aq1pnTj9kLTk1m5ZwlNFyNJjXxb/D88dNV0U8q5RsVrnLlnsyI/K8RRh8bbu3J0ppnWUfjaKrluuinlnVKqnFtIzZT000q8rsmp0l4xG2uGp4rNuau3SPmgbeTXJ9OqI97WVOKbjJmkLIYE+Rusvl6CCxG2OOufdxFPs1n3/JvW8nsU+lrLWVNxr6nPjqyZyL2NbJOZCCxGa43E/e3apjt0jujRvW8JZt+jTDE+U0GcVctq7uUCPX+Rsla1GuRyNYibFz25qZaI4kphKZiidedZ2i+Li8IwO+Ekkd9pU9B1bZWjdy6meeZn3qVtBVvY2qOaI8EoLGhAAAAAAAAAAAAAAAAAAAAAAAAXcBzFpRwFituMbxcqaw1dTQ1FU+aOWnRJM2u27Uauabc+wVvF4S95WqqKdYmXb9nNo8unAWbFy9FNdNMRMTxccdc8XvV3UwzU0qxVMMkEib2SsVi8ykfMTHFK427lNyneonWOrj8H5nj7AAAABNsJ/oSLw3+c8lWMz/Ez7G2DQfhUVdLTpnPURR+E9M+YMlFm5c9GmZa6oxFbYvaOkmX9xmznUaNy3leIq5Y07WuqMUyrsp6Rjflkdn5EPdG5Rk9P/Orua6pvtzl9tVcU3kYiNDdt5fh6OSnXt431bbLf73J/s+13G4OX30cL3p9Ld5TJRauXPRpmXziMfgsFH21ymjtmI93K6H4P+GLvhrDtc280TqOoqapJGxue1y6iMREVclXLbnsLBl1iuzbnfjSZlx/bbNsNmOLtzhq96mmnTXj5dZ5/YsokVLAAAAAA+KiNJYJIl3ParV+dMj2J0nV81RvRMOLcQaOca2V8i1eG69YWKv5WGPjmZZ7FzZnl850GzmWGu+jXGvd4uVYnJ8ZYmd63OnVx+CKyMfFIscjXMem9rkyVPmU3YmJjWEZNM0zpMPk9eAAAAAkkXuLPBTzEnTyQhavSl9H08flJUQR+3mYi8mZ8Tcpjll902q6uSGPJc6duxiPeveyMU4imORmpwlc8vExpLpKvucbG9/aYpxNX5M9ODpjlljS1lS9cnTOTPsJsMc3a55ZZqbFEckNvZMH4rvaotsw/cqpq/wB4kDkZ9J2SeU0ruNw9r064j2pKxluKv/d25n2cTrTQ3Y67Dmjm1Wm5QJBWRNe6aPWR2q50jnZZps3KhRsyv038TVXROsf6dLyfDV4XB0Wq40mNde9LzRSYAAAAAH51UfG00kWWeuxW86ZGO7Rv0TTzw+qKt2qKuZSNdhy+UKf6xa6lGt98xuu3nbmcfv5NjsP6dqdOrjj3aulWczwl70LkeHi1bkVrtVyZO5F2KRsxpOkt2OONYA9AAAAu5QQltN+bx+AnmME8qEr9KX1JJHGmcj2sT95cjx5ETPIxJbpRR7pddeRiZn1uyzU4a7P5aMSW9puigVfle70IfUW2anBT/wApYkt1rX55PbGn7rT2KYZ6cLbjl42JLNLKv5WV71/edmfXFDPTRTTyQzKCy3etVOpLbVSN7ZI1RvOuSG/h8sxmI+6tTPs4ve1r2Ow1n7y5Ee1cOD6Ke3YboqOpZqTRx+zbmi5Kqqu9O+dUybC14XA27VyNKojj79XP8zv04jFV3KJ1iZ4m2JRoAAAAAAAAAAAAAAAAAAAAAAAAB5kgGNX26guEXFV9HT1UfazRNenlQ+aqKauKqNWazib1id61XNM9UzHgh940S4FuWa+o6UUi+/pJXReRPY+Q1K8uw9f/AB07Fjwu2ecYfi8rvR+qIn38vvQu86A6ddZ1nxDLGvvY6uFHp9JuS+Q07mUR/wAKu9ZMJ/UeuNIxFiJ66Z0906+KF3jQ5jeg1nQUlLcWN7NNOma/yvyU068tv08karLhNuspv6RXVNE/qj4xqht2sd6tLlbdLRXUeXZmgc1OfLLymnXaro9KJhZMNmOExca2LtNXZMT7uVrkVF2oqL3jG3eRs6O9VlJRNpafi2taqrrK3Ndqho3cBau3JuV6vwluFwrH8W6pnlcu5jFXzIIZacNYsxrFMR1/7lurNgHGV3VrqLDtdqu3STM4pvO/I2aMJeuclMozFbR5XhOK5fp4vyidZ7o1TOzaCsSVOq653K30DV3tZrTPTmyTym5RlV2fSmI96t4r+oeAt8Vi3VX3Ux8Z9yaWbQVhimydcq+43B6b010iYvzNTPym5RlVqPSmZVrFf1CzC5xWaKaPfPv4vcmllwJhCz5LQYeoI3pue+LjH/SdmpuUYSzR6NMK1i9oczxf3t+qY5tdI7o0SNrGtajWoiIm5ETYhsaIeZmZ1l6HgAAAAAAAAyA1t3sNlu8asutpoa1qpl+Xga9edUzMtu/dtehVMdksF7C2b0aXKInthB73oQwDcdZ0FvqLbIvvqSdzU+i7NPISVrO8Xb5Z17YRF/ZvA3eOKd2eqfmgl74OkqZvsmJGO5I6yny+0xf6SStbRx/5KO7/AGh7+yM8tq53x8Y+SC3vQzpAtiK5toZXxp7+jmbJ9lcneQkrWc4S5/y07UPf2cx9rkp3o6v+6oTdLVc7VKsVzt1XRPT3tRC6PzoSNu9buRrRVE9iIu4e7ZnS5TMdsMPsGRhZa3CpVqNYrWIiZbE2mab9emkNeMNRrrL5hZW18yQwMqKqRdzImq9V+ZDDXd0jWuWzasazpRTxpZY9FePrvqup8OVMEbtvGVapAmX8y5+Qjrua4S1y1xPZxpaxkWOvcluYjr4vFOrHwdr1NquvN+oqNq72U0bpnc66qecjb20VuPu6Jnt4vmmLGyV2rju1xHZx/JOrHoEwTRI11e64XR6b0mn1GL/KzLzkbdz7FV+jpT/3rTFjZfBW/T1q7Z+Sd2PB2FbIiepWH7dSuTc9sDVf9Jc18pG3cZfu+nXM+1MWcvw1j7u3Eez4t5qpll2DWbj0AAAAAAAAAyAxa23UFa1W1dHTzovwkaKa1/B2MRGl2iKu2IZrWJvWZ1t1THZLQ12BMPVOaxwS0ruWGRUTmXNCFxGyuX3fRpmnsn4TqlbO0GNt8sxV2x8tGgrtG0qZrQ3NruRs8eXlToIS/sXVHHZu98fGPklLO09P/lt90/Noa7BmIqXNeoeqGp2YHo7ybF8hCX9msxs/+PejqmJ/2lLOeYK7/wA9O2NGjqqappX6lVTzQO5JGK3zkNds3LM6XKZp7YmPFJ27tF2NaKonsnV+W9DGyMl9dVuYjePejUTLJuw+d2GGLFuJ10fjEyWok1Y2STPXsNRXL5DJRRVcndojWerjZKqqaI1qnSO5uaHCWIazJWW2SNq++mVI08u3yEth9n8xv8lqYjr4vHj9yOvZxgrXLXr2cbfUOjitfktbcYIU7LYmK9edckJvD7G3quO9ciOyJn5Iu9tPaj7qiZ7eL5t/QaP7FBks/VFWvZ4yTVRfmbkTeH2SwFvjr1q7Z08NEVe2ixdfoaU9kfPVvqCzWqhROpLfTQqnZbGmfPvJvD5dhMN91biPZ8UXexuIv/eVzPtZ2RutV6AAAAAAAAAAAAAAAAAAAAAAAAAAAAAAAAPHsa9qtc1HNVMlRUzRQ9iZidYRu84Dwhd1Va/D1A96/wB4yPi3/Sbkpr3MJZuelTCYwm0WaYT7q/VEc0zrHdOrS2/Q/gSkndK61SVOa5oyoqXva35s/PmYactw9M66apO9ttnF2ndi5FPZERP/AHsS+1WS0WliMtlroqNE2fkIWs8qIbdFqij0Y0V3E47E4qdb9yau2ZlsMj7aoAAAAAAAAAAAAAAAAAAAH51MENREsU8TJY3b2PajkX5lPYqmmdYfNVNNUaVRqiF80X4EvGs6qw3RxyO/vKZFgdny+wVPKb1rNMXa9Gufbx+KNv5Lgb/pW49nF4MKy6HdH9sXXSxNrHouaOrJXS+RV1fIZLucYy5/z07OJhs5BgLXHua9vGmtuttvtsPE2+hpqSPtYImsTyIR9dyuudap1S1uzbtRpRTEdjLyPhkAAAAAAAAAAAAAAAAAAAA+JYo5WKyRjXtXejkzQ+a6Ka40qjWHtNU0zrE6NNX4Tw/WZrJbIWOX30Wca+QiMRkGX3+Oq1ET1cXgkbOb4yzxU3JmOvj8X5UODMPUuSpb2zOTszuV/kXYY7GzeXWePyes9czP+mS9neNu/wDPTs4m8pqaCmZqU8EULe1YxGp5CYtWbdqNLdMRHVGiMruV3J1rmZ7X6mV8AAAAAAAAAAAAAAAAAAAAAAAAAAAAAAAAAAAAAAAAAAAAAAAAAAAAAAAAAAAAAAAAAAAAAAAAAAAAAAAAAAAAAAAAAAAAAAAAAAAAAAAAAAAAAAAAAAAAAAAAAAAAAAAAAAAAAAAAAAAAAAAAAAAAAAAAAAAAAAAAAAAAAAAAAAAAAAAAAAAAAAAAAAAAAAAAAAAAAAAAAAAAAAAAAAAAAAAAAAAAAAAAAAAAAAAAAAAAAAAAAAAAAAAAAAAAAAAAAAAAAAAAAAAAAAAAAAAAAAAAAAAAAAAAAAAAAAAAAAAAAAAAAAAAAAAAAAAAAAAAAAAAAAAAAAAAAAAAAAAAAAAAAAAAAAAAAAAAAAAAAAAAAAAAAAAAAAAAAAAAAAAAAAAAAAAAAAAAAAAAAAAAAAAAAAAAAAAAAAAAAAAAAAAAAAAAAAAAAAAAAAAAAAAAAAAAAAAAAAAAAAAAAAAAAAAAAAAAAAAAAAAAAAAAAAAAAAAAAAAAAAAAAAAAAAAAAAAAAAAAAAAAAAAAAAAAAAAAAAAAAAAAAAAAAAAAAAAAAAAAAAAAAAAAAAAAAAAAAAAAAAAAAAAAAAAAAAAAAAAAAAAAAAAAAAAAAAAAAAAAAAAAAAAAAAAAAAAAAAAAAAAAAAAAAAAAAAAAAAAAAAAAAAAAAAAAAAAAAAAAAAAAAAAAAAAAAAAAAAAAAAAAAAAAAAAAAAAAAAAAAAAAAAAAAAAAAAAAAAAAAAAAAAAAAAAAAAAAAAAAAAAAAAAAAAAAAAAAAAAAAAAAAAAAAAAAAAAAAAAAAAAAAAAAAAAAAAAAAAAAAAAAAAAAAAAAAAAAAAAAAAAAAAAAAAAAAAAAAAAAAAAAAAAAAAAAAAAAAAAAAAAAAAAAAAAAAAAAAAAAAAAAAAAAAAAAAAAAAAAAAAAAAAAAAAAAAAAAAAAAAAAAAAAAAAAAAAAAAAAAAAAA/9k=;" vertex="1" parent="1">
          <mxGeometry x="440" y="350" width="223" height="124.85" as="geometry" />
        </mxCell>
        <mxCell id="rGpltZNzkcHZ6WwnMBFY-8" value="" style="verticalLabelPosition=bottom;sketch=0;aspect=fixed;html=1;verticalAlign=top;strokeColor=none;align=center;outlineConnect=0;shape=mxgraph.citrix.laptop_2;" vertex="1" parent="1">
          <mxGeometry x="280" y="310" width="93.87" height="70" as="geometry" />
        </mxCell>
        <mxCell id="rGpltZNzkcHZ6WwnMBFY-9" value="" style="rounded=1;whiteSpace=wrap;html=1;" vertex="1" parent="1">
          <mxGeometry x="260" y="60" width="340" height="210" as="geometry" />
        </mxCell>
        <mxCell id="rGpltZNzkcHZ6WwnMBFY-10" value="Serveur Web" style="rounded=1;whiteSpace=wrap;html=1;" vertex="1" parent="1">
          <mxGeometry x="280" y="80" width="100" height="50" as="geometry" />
        </mxCell>
        <mxCell id="rGpltZNzkcHZ6WwnMBFY-12" value="" style="endArrow=classic;html=1;rounded=0;entryX=0.5;entryY=1;entryDx=0;entryDy=0;" edge="1" parent="1" source="rGpltZNzkcHZ6WwnMBFY-8" target="rGpltZNzkcHZ6WwnMBFY-10">
          <mxGeometry width="50" height="50" relative="1" as="geometry">
            <mxPoint x="450" y="355" as="sourcePoint" />
            <mxPoint x="500" y="305" as="targetPoint" />
          </mxGeometry>
        </mxCell>
        <mxCell id="rGpltZNzkcHZ6WwnMBFY-13" value="" style="endArrow=classic;html=1;rounded=0;" edge="1" parent="1" source="rGpltZNzkcHZ6WwnMBFY-1" target="rGpltZNzkcHZ6WwnMBFY-8">
          <mxGeometry width="50" height="50" relative="1" as="geometry">
            <mxPoint x="520" y="320" as="sourcePoint" />
            <mxPoint x="570" y="270" as="targetPoint" />
          </mxGeometry>
        </mxCell>
        <mxCell id="rGpltZNzkcHZ6WwnMBFY-5" value="" style="shape=image;verticalLabelPosition=bottom;labelBackgroundColor=default;verticalAlign=top;aspect=fixed;imageAspect=0;image=https://upload.wikimedia.org/wikipedia/commons/thumb/3/31/Webysther_20160423_-_Elephpant.svg/2560px-Webysther_20160423_-_Elephpant.svg.png;" vertex="1" parent="1">
          <mxGeometry x="389" y="80" width="72.91" height="50" as="geometry" />
        </mxCell>
        <mxCell id="rGpltZNzkcHZ6WwnMBFY-15" value="" style="group" vertex="1" connectable="0" parent="1">
          <mxGeometry x="640" y="130" width="200" height="90" as="geometry" />
        </mxCell>
        <mxCell id="rGpltZNzkcHZ6WwnMBFY-14" value="&lt;font style=&quot;font-size: 21px;&quot;&gt;Repo Git&amp;nbsp; &amp;nbsp; &amp;nbsp; &amp;nbsp; &amp;nbsp; &amp;nbsp;&lt;/font&gt;" style="rounded=1;whiteSpace=wrap;html=1;fontSize=16;align=center;" vertex="1" parent="rGpltZNzkcHZ6WwnMBFY-15">
          <mxGeometry width="200.00000000000003" height="90" as="geometry" />
        </mxCell>
        <mxCell id="rGpltZNzkcHZ6WwnMBFY-6" value="" style="dashed=0;outlineConnect=0;html=1;align=center;labelPosition=center;verticalLabelPosition=bottom;verticalAlign=top;shape=mxgraph.weblogos.github" vertex="1" parent="rGpltZNzkcHZ6WwnMBFY-15">
          <mxGeometry x="130" y="17.5" width="57.8" height="55" as="geometry" />
        </mxCell>
      </root>
    </mxGraphModel>
  </diagram>
</mxfile>
